<?xml version="1.0" encoding="utf-8"?>
<!-- Generator: Adobe Illustrator 24.0.1, SVG Export Plug-In . SVG Version: 6.00 Build 0)  -->
<svg version="1.1" xmlns="http://www.w3.org/2000/svg" xmlns:xlink="http://www.w3.org/1999/xlink" x="0px" y="0px"
	 viewBox="0 0 144.7 132" style="enable-background:new 0 0 144.7 132;" xml:space="preserve">
<style type="text/css">
	.st0{fill:#00B262;}
	.st1{fill:#081931;}
	.st2{fill:#FFFFFF;}
	.st3{fill:#282B3E;}
	.st4{display:none;}
	.st5{display:inline;}
	.st6{fill:none;}
	
		.st7{fill:none;stroke:#00A84F;stroke-width:2;stroke-linecap:round;stroke-linejoin:round;stroke-miterlimit:10;stroke-dasharray:20;}
	.st8{opacity:0.8;}
	.st9{fill:none;stroke:#FFFFFF;stroke-width:1.2;stroke-miterlimit:10;}
	.st10{clip-path:url(#SVGID_2_);}
	.st11{fill:#FFFFFF;stroke:#00B262;stroke-width:1.2;stroke-miterlimit:10;}
	
		.st12{fill:none;stroke:#00B262;stroke-width:1.2;stroke-linecap:round;stroke-linejoin:round;stroke-miterlimit:10;stroke-dasharray:20;}
	.st13{opacity:0.9;fill:#F3716D;}
	.st14{fill:#034EA2;}
</style>
<g id="Outlined">
	<g>
		<path class="st3" d="M120.42,19.8C107.73,7.11,91.1,0.76,74.45,0.76c-16.63,0-33.27,6.35-45.96,19.04
			C17.17,31.12,10.93,45.59,9.72,60.39h15.07c1.18-10.95,5.93-21.6,14.31-29.98c9.44-9.44,22-14.64,35.35-14.64
			c13.36,0,25.91,5.2,35.36,14.64s14.65,22,14.65,35.36c0,13.36-5.2,25.91-14.65,35.35c-9.44,9.44-22,14.65-35.36,14.65
			c-13.35,0-25.91-5.2-35.35-14.65c-3.55-3.55-6.44-7.52-8.7-11.73h13.47V75.89v-1.51H25.26H10.1H3.81v1.51v38.55h15V99.24
			c2.68,4.44,5.86,8.66,9.69,12.49c12.69,12.69,29.33,19.04,45.96,19.04c16.64,0,33.27-6.34,45.96-19.04
			C145.8,86.34,145.8,45.18,120.42,19.8"/>
		<polygon class="st3" points="109.74,41.8 99.17,31.16 74.96,55.2 58.86,39.22 48.29,49.87 74.97,76.33 		"/>
	</g>
</g>
<g id="None_outline" class="st4">
</g>
<g id="Grid">
</g>
</svg>
