<?xml version="1.0" encoding="utf-8"?>
<!-- Generator: Adobe Illustrator 24.0.1, SVG Export Plug-In . SVG Version: 6.00 Build 0)  -->
<svg version="1.1" xmlns="http://www.w3.org/2000/svg" xmlns:xlink="http://www.w3.org/1999/xlink" x="0px" y="0px"
	 viewBox="0 0 132 132" style="enable-background:new 0 0 132 132;" xml:space="preserve">
<style type="text/css">
	.st0{fill:#00B262;}
	.st1{fill:#081931;}
	.st2{fill:#FFFFFF;}
	.st3{fill:#282B3E;}
	.st4{display:none;}
	.st5{display:inline;}
	.st6{fill:none;}
	
		.st7{fill:none;stroke:#00A84F;stroke-width:2;stroke-linecap:round;stroke-linejoin:round;stroke-miterlimit:10;stroke-dasharray:20;}
	.st8{opacity:0.8;}
	.st9{fill:none;stroke:#FFFFFF;stroke-width:1.2;stroke-miterlimit:10;}
	.st10{clip-path:url(#SVGID_2_);}
	.st11{fill:#FFFFFF;stroke:#00B262;stroke-width:1.2;stroke-miterlimit:10;}
	
		.st12{fill:none;stroke:#00B262;stroke-width:1.2;stroke-linecap:round;stroke-linejoin:round;stroke-miterlimit:10;stroke-dasharray:20;}
	.st13{opacity:0.9;fill:#F3716D;}
	.st14{fill:#034EA2;}
</style>
<g id="Outlined">
	<g>
		<path class="st3" d="M66,0.76c-35.9,0-65,29.1-65,65c0,35.9,29.1,65,65,65c35.9,0,65-29.1,65-65C131,29.86,101.9,0.76,66,0.76
			 M66,116.53c-27.99,0-50.77-22.78-50.77-50.77c0-27.99,22.78-50.77,50.77-50.77c27.99,0,50.77,22.78,50.77,50.77
			C116.77,93.76,93.99,116.53,66,116.53"/>
		<rect x="38.52" y="43.6" class="st3" width="14.23" height="14.23"/>
		<rect x="79.2" y="43.6" class="st3" width="14.23" height="14.23"/>
		<path class="st3" d="M66,66.61c-11.03,0-19.96,8.94-19.96,19.97c0,11.02,8.93,19.96,19.96,19.96c11.03,0,19.96-8.94,19.96-19.96
			C85.96,75.55,77.03,66.61,66,66.61 M66,95.07c-4.69,0-8.5-3.81-8.5-8.49c0-4.69,3.81-8.49,8.5-8.49c4.69,0,8.49,3.81,8.49,8.49
			C74.5,91.25,70.69,95.07,66,95.07"/>
	</g>
</g>
<g id="None_outline" class="st4">
</g>
<g id="Grid">
</g>
</svg>
